<svg xmlns="http://www.w3.org/2000/svg" version="1.1" xmlns:xlink="http://www.w3.org/1999/xlink" xmlns:svgjs="http://svgjs.dev/svgjs" width="1440" height="336" preserveAspectRatio="none" viewBox="0 0 1440 336"><g mask="url(&quot;#SvgjsMask1515&quot;)" fill="none"><path d="M48 336L384 0L598.5 0L262.5 336z" fill="url(&quot;#SvgjsLinearGradient1516&quot;)"></path><path d="M255.60000000000002 336L591.6 0L816.6 0L480.6 336z" fill="url(&quot;#SvgjsLinearGradient1516&quot;)"></path><path d="M485.20000000000005 336L821.2 0L1082.2 0L746.2 336z" fill="url(&quot;#SvgjsLinearGradient1516&quot;)"></path><path d="M715.8000000000001 336L1051.8000000000002 0L1264.8000000000002 0L928.8000000000001 336z" fill="url(&quot;#SvgjsLinearGradient1516&quot;)"></path><path d="M1422 336L1086 0L828 0L1164 336z" fill="url(&quot;#SvgjsLinearGradient1517&quot;)"></path><path d="M1189.4 336L853.4000000000001 0L776.9000000000001 0L1112.9 336z" fill="url(&quot;#SvgjsLinearGradient1517&quot;)"></path><path d="M960.8 336L624.8 0L512.3 0L848.3 336z" fill="url(&quot;#SvgjsLinearGradient1517&quot;)"></path><path d="M697.1999999999999 336L361.19999999999993 0L80.69999999999993 0L416.69999999999993 336z" fill="url(&quot;#SvgjsLinearGradient1517&quot;)"></path><path d="M1192.5658099362222 336L1440 88.56580993622208L1440 336z" fill="url(&quot;#SvgjsLinearGradient1516&quot;)"></path><path d="M0 336L247.43419006377792 336L 0 88.56580993622208z" fill="url(&quot;#SvgjsLinearGradient1517&quot;)"></path></g><defs><mask id="SvgjsMask1515"><rect width="1440" height="336" fill="#ffffff"></rect></mask><linearGradient x1="0%" y1="100%" x2="100%" y2="0%" id="SvgjsLinearGradient1516"><stop stop-color="rgba(15, 70, 185, 0.2)" offset="0"></stop><stop stop-opacity="0" stop-color="rgba(15, 70, 185, 0.2)" offset="0.66"></stop></linearGradient><linearGradient x1="100%" y1="100%" x2="0%" y2="0%" id="SvgjsLinearGradient1517"><stop stop-color="rgba(15, 70, 185, 0.2)" offset="0"></stop><stop stop-opacity="0" stop-color="rgba(15, 70, 185, 0.2)" offset="0.66"></stop></linearGradient></defs></svg>