<svg id="SvgjsSvg1024" width="256" height="256" xmlns="http://www.w3.org/2000/svg" version="1.1" xmlns:xlink="http://www.w3.org/1999/xlink" xmlns:svgjs="http://svgjs.com/svgjs"><defs id="SvgjsDefs1025"></defs><g id="SvgjsG1026"><svg xmlns="http://www.w3.org/2000/svg" fill-rule="evenodd" clip-rule="evenodd" image-rendering="optimizeQuality" shape-rendering="geometricPrecision" text-rendering="geometricPrecision" viewBox="0 0 2048 2048" width="256" height="256"><path fill="#212121" fill-rule="nonzero" d="M1024 390c213 0 407 14 548 37 156 25 252 67 252 120s-96 95-252 120c-141 23-335 37-548 37s-407-14-548-37c-156-25-252-67-252-120s96-95 252-120c141-23 335-37 548-37zm538 100c-137-22-327-36-538-36s-401 14-538 36c-122 20-198 40-198 57 0 16 76 37 198 57 137 22 327 36 538 36s401-14 538-36c122-20 198-40 198-57 0-16-76-37-198-57z" class="color212121 svgShape"></path><path fill="#212121" fill-rule="nonzero" d="M1824 547v169c0 44-110 90-284 119-138 22-318 38-516 38-36 0-74-1-114-2s-78-3-113-5c-153-10-285-28-382-49-119-26-191-63-191-101V547h64v169c0 5 52 19 140 39 94 21 224 38 372 48 37 2 74 4 111 5 34 1 72 2 112 2 195 0 372-16 506-37 141-23 230-45 230-56V548h64z" class="color212121 svgShape"></path><path fill="#212121" fill-rule="nonzero" d="m943 832 112 428-1 21-75 178-7 16-16 3-311 66v82h-64v-133l26-6 319-68 64-153-109-418z" class="color212121 svgShape"></path><path fill="#212121" fill-rule="nonzero" d="m1167 848-109 418 64 153 319 68 26 6v133h-64v-82l-311-66-16-3-7-16-75-178-1-21 112-428z" class="color212121 svgShape"></path><path fill="#212121" fill-rule="nonzero" d="M1467 1523c0 31-64 62-164 78-74 12-172 21-278 21-18 0-39 0-61-1s-42-2-61-3c-83-5-154-15-207-26-71-15-114-41-114-69h64c0 5 24-3 63 6 50 11 118 20 197 25 20 1 40 2 59 3 17 1 37 1 60 1 103 0 197-8 268-20 68-11 111-13 111-15h64z" class="color212121 svgShape"></path><path fill="none" d="M0 0h2048v2048H0z"></path></svg></g></svg>
