<svg id="SvgjsSvg1034" width="256" height="256" xmlns="http://www.w3.org/2000/svg" version="1.1" xmlns:xlink="http://www.w3.org/1999/xlink" xmlns:svgjs="http://svgjs.com/svgjs"><defs id="SvgjsDefs1035"></defs><g id="SvgjsG1036"><svg xmlns="http://www.w3.org/2000/svg" enable-background="new 0 0 256 256" viewBox="0 0 256 256" width="256" height="256"><path fill="#4b67b0" d="M20,110.001c0-3.314,2.686-6,6-6h18v-12h-6C28.059,92.001,20,100.059,20,110.001z" class="color4b67b0 svgShape"></path><path fill="#89aadb" d="M20,110.001c0,9.941,8.059,18,18,18h6v-12H26C22.686,116.001,20,113.314,20,110.001z" class="color89aadb svgShape"></path><path fill="#6287c5" d="M20,110.001L20,110.001c0,3.314,2.686,6,6,6h18v-12H26C22.686,104.001,20,106.687,20,110.001z" class="color6287c5 svgShape"></path><path fill="#4b67b0" d="M20,56c0-3.314,2.686-6,6-6h18V38h-6C28.059,38,20,46.059,20,56z" class="color4b67b0 svgShape"></path><path fill="#89aadb" d="M20,56c0,9.941,8.059,18,18,18h6V62H26C22.686,62,20,59.314,20,56z" class="color89aadb svgShape"></path><path fill="#6287c5" d="M20,56L20,56c0,3.314,2.686,6,6,6h18V50H26C22.686,50,20,52.686,20,56z" class="color6287c5 svgShape"></path><path fill="#4b67b0" d="M20,164c0-3.314,2.686-6,6-6h18v-12h-6C28.059,146,20,154.059,20,164z" class="color4b67b0 svgShape"></path><path fill="#89aadb" d="M20,164c0,9.941,8.059,18,18,18h6v-12H26C22.686,170,20,167.314,20,164z" class="color89aadb svgShape"></path><path fill="#6287c5" d="M20,164L20,164c0,3.314,2.686,6,6,6h18v-12H26C22.686,158,20,160.686,20,164z" class="color6287c5 svgShape"></path><path fill="#4b67b0" d="M236,110c0,3.314-2.686,6-6,6h-18v12h6C227.941,128,236,119.941,236,110z" class="color4b67b0 svgShape"></path><path fill="#89aadb" d="M236,109.999c0-9.941-8.059-18-18-18h-6v12h18C233.314,104,236,106.686,236,109.999z" class="color89aadb svgShape"></path><path fill="#6287c5" d="M236,110L236,110c0-3.314-2.686-6-6-6h-18v12h18C233.314,116,236,113.313,236,110z" class="color6287c5 svgShape"></path><path fill="#4b67b0" d="M236,164c0,3.314-2.686,6-6,6h-18v12h6C227.941,182,236,173.941,236,164z" class="color4b67b0 svgShape"></path><path fill="#89aadb" d="M236,164c0-9.941-8.059-18-18-18h-6v12h18C233.314,158,236,160.686,236,164z" class="color89aadb svgShape"></path><path fill="#6287c5" d="M236,164L236,164c0-3.314-2.686-6-6-6h-18v12h18C233.314,170,236,167.314,236,164z" class="color6287c5 svgShape"></path><path fill="#4b67b0" d="M236,56c0,3.314-2.686,6-6,6h-18v12h6C227.941,74,236,65.941,236,56z" class="color4b67b0 svgShape"></path><path fill="#89aadb" d="M236,56c0-9.941-8.059-18-18-18h-6v12h18C233.314,50,236,52.686,236,56z" class="color89aadb svgShape"></path><path fill="#6287c5" d="M236,56L236,56c0-3.314-2.686-6-6-6h-18v12h18C233.314,62,236,59.314,236,56z" class="color6287c5 svgShape"></path><path fill="#4b67b0" d="M128.002,218c-3.314,0-6-2.686-6-6v-18h-12v6C110.002,209.941,118.061,218,128.002,218z" class="color4b67b0 svgShape"></path><path fill="#89aadb" d="M128.002,218c9.941,0,18-8.059,18-18v-6h-12v18C134.002,215.314,131.316,218,128.002,218z" class="color89aadb svgShape"></path><path fill="#6287c5" d="M128.002,218L128.002,218c3.314,0,6-2.686,6-6v-18h-12v18C122.002,215.314,124.688,218,128.002,218z" class="color6287c5 svgShape"></path><path fill="#4b67b0" d="M74.001,218c-3.314,0-6-2.686-6-6v-18h-12v6C56.001,209.941,64.06,218,74.001,218z" class="color4b67b0 svgShape"></path><path fill="#89aadb" d="M74.002,218c9.941,0,18-8.059,18-18v-6h-12v18C80.001,215.314,77.315,218,74.002,218z" class="color89aadb svgShape"></path><path fill="#6287c5" d="M74.001,218L74.001,218c3.314,0,6-2.686,6-6v-18h-12v18C68.001,215.314,70.688,218,74.001,218z" class="color6287c5 svgShape"></path><path fill="#4b67b0" d="M182.001,218c-3.314,0-6-2.686-6-6v-18h-12v6C164.001,209.941,172.06,218,182.001,218z" class="color4b67b0 svgShape"></path><path fill="#89aadb" d="M182.001,218c9.941,0,18-8.059,18-18v-6h-12v18C188.001,215.314,185.315,218,182.001,218z" class="color89aadb svgShape"></path><path fill="#6287c5" d="M182.001,218L182.001,218c3.314,0,6-2.686,6-6v-18h-12v18C176.001,215.314,178.688,218,182.001,218z" class="color6287c5 svgShape"></path><path fill="#89aadb" d="M190,182c5.523,0,10-4.477,10-10V38h-36v108v36H190z" class="color89aadb svgShape"></path><path fill="#4b67b0" d="M66,182h25.577v-36H92V38H56v134C56,177.523,60.477,182,66,182z" class="color4b67b0 svgShape"></path><polygon fill="#6287c5" points="91.577 182 164 182 164 146 92 146 91.577 146" class="color6287c5 svgShape"></polygon><path fill="#1c2d6b" d="M190 185H66c-7.168 0-13-5.832-13-13V38c0-1.657 1.343-3 3-3h36c1.657 0 3 1.343 3 3v105h66V38c0-1.657 1.343-3 3-3h36c1.657 0 3 1.343 3 3v134C203 179.168 197.168 185 190 185zM59 41v131c0 3.86 3.141 7 7 7h124c3.859 0 7-3.14 7-7V41h-30v105c0 1.657-1.343 3-3 3H92c-1.657 0-3-1.343-3-3V41H59zM44 185h-6c-11.579 0-21-9.42-21-21s9.421-21 21-21h6c1.657 0 3 1.343 3 3v36C47 183.657 45.657 185 44 185zM38 149c-8.271 0-15 6.729-15 15s6.729 15 15 15h3v-30H38zM44 131h-6c-11.579 0-21-9.42-21-21s9.421-21 21-21h6c1.657 0 3 1.343 3 3v36C47 129.657 45.657 131 44 131zM38 95c-8.271 0-15 6.729-15 15s6.729 15 15 15h3V95H38zM44 77h-6c-11.579 0-21-9.42-21-21s9.421-21 21-21h6c1.657 0 3 1.343 3 3v36C47 75.657 45.657 77 44 77zM38 41c-8.271 0-15 6.729-15 15s6.729 15 15 15h3V41H38z" class="color1c2d6b svgShape"></path><g fill="#000000" class="color000 svgShape"><path fill="#1c2d6b" d="M218,185h-6c-1.657,0-3-1.343-3-3v-36c0-1.657,1.343-3,3-3h6c11.579,0,21,9.42,21,21S229.579,185,218,185z			 M215,179h3c8.271,0,15-6.729,15-15s-6.729-15-15-15h-3V179z" class="color1c2d6b svgShape"></path></g><g fill="#000000" class="color000 svgShape"><path fill="#1c2d6b" d="M218,131h-6c-1.657,0-3-1.343-3-3V92c0-1.657,1.343-3,3-3h6c11.579,0,21,9.42,21,21S229.579,131,218,131z
			 M215,125h3c8.271,0,15-6.729,15-15s-6.729-15-15-15h-3V125z" class="color1c2d6b svgShape"></path></g><g fill="#000000" class="color000 svgShape"><path fill="#1c2d6b" d="M218,77h-6c-1.657,0-3-1.343-3-3V38c0-1.657,1.343-3,3-3h6c11.579,0,21,9.42,21,21S229.579,77,218,77z
			 M215,71h3c8.271,0,15-6.729,15-15s-6.729-15-15-15h-3V71z" class="color1c2d6b svgShape"></path></g><g fill="#000000" class="color000 svgShape"><path fill="#1c2d6b" d="M74.001,221c-11.579,0-21-9.42-21-21v-6c0-1.657,1.343-3,3-3h36c1.657,0,3,1.343,3,3v6
			C95.001,211.58,85.58,221,74.001,221z M59.001,197v3c0,8.271,6.729,15,15,15s15-6.729,15-15v-3H59.001z" class="color1c2d6b svgShape"></path></g><g fill="#000000" class="color000 svgShape"><path fill="#1c2d6b" d="M128.001,221c-11.579,0-21-9.42-21-21v-6c0-1.657,1.343-3,3-3h36c1.657,0,3,1.343,3,3v6
			C149.001,211.58,139.58,221,128.001,221z M113.001,197v3c0,8.271,6.729,15,15,15s15-6.729,15-15v-3H113.001z" class="color1c2d6b svgShape"></path></g><g fill="#000000" class="color000 svgShape"><path fill="#1c2d6b" d="M182.001,221c-11.579,0-21-9.42-21-21v-6c0-1.657,1.343-3,3-3h36c1.657,0,3,1.343,3,3v6
			C203.001,211.58,193.58,221,182.001,221z M167.001,197v3c0,8.271,6.729,15,15,15s15-6.729,15-15v-3H167.001z" class="color1c2d6b svgShape"></path></g></svg></g></svg>
